<?xml version="1.0" standalone="no"?> <!DOCTYPE svg PUBLIC "-//W3C//DTD SVG 1.0//EN" "http://www.w3.org/TR/2001/REC-SVG-20010904/DTD/svg10.dtd" > <svg xmlns="http://www.w3.org/2000/svg" width="100%" height="100%">
<defs >
<font id="WeblySleekUISemibold-Italic" horiz-adv-x="1209" ><font-face
    font-family="WeblySleek UI Semibold"
    units-per-em="2048"
    panose-1="2 11 7 2 4 2 4 9 2 3"
    ascent="2210"
    descent="-514"
    alphabetic="0" />
<missing-glyph horiz-adv-x="1322" d="M166 0V1398H1156V0H166ZM314 148H1008V1250H314V148Z" />
<glyph unicode=" " glyph-name="space" horiz-adv-x="563" />
<glyph unicode="!" glyph-name="exclam" horiz-adv-x="681" d="M415 424H219L405 1434H657L415 424ZM409 121Q409 62 367 21T259 -21Q198 -21 156 17T114 112Q114 173 157 214T266 255Q325 255 367 217T409 121Z" />
<glyph unicode="&quot;" glyph-name="quotedbl" horiz-adv-x="888" d="M807 997H647L627 1443H827L807 997ZM468 997H308L288 1443H488L468 997Z" />
<glyph unicode="#" glyph-name="numbersign" horiz-adv-x="1190" d="M1182 907H960L901 634H1144L1109 490H872L789 119H625L705 490H466L387 119H224L302 490H77L106 634H333L390 906H150L178 1050H419L498 1429H663L586 1050H825L906 1429H1069L991 1050H1213L1182
907ZM555 907L494 634H737L796 907H555Z" />
<glyph unicode="$" glyph-name="dollar" horiz-adv-x="1142" d="M1055 1178Q930 1245 792 1262L691 788Q990 620 990 406Q990 283 936 190T777 44T521 -14L478 -209H355L396 -11Q312 -6 215 20T68 72L109 279Q167 242 262 210T434 170L532 626Q408 700 348 758T257
885T226 1038Q226 1155 284 1247T451 1392T706 1447L742 1618H867L829 1442Q967 1431 1095 1377L1055 1178ZM667 1262Q563 1256 505 1197T446 1053Q446 997 474 951T579 851L667 1262ZM771 380Q771 430 743 472T644 564L560 169Q656 174 713 232T771 380Z" />
<glyph unicode="%" glyph-name="percent" horiz-adv-x="1732" d="M1638 424Q1638 309 1588 205T1448 41T1245 -20Q1146 -20 1078 19T974 127T938 282Q938 399 993 506T1139 669T1339 724Q1480 724 1559 643T1638 424ZM383 0H186L1420 1434H1617L383 0ZM870 1155Q870
1033 816 927T672 766T476 710Q377 710 310 748T206 856T170 1014Q170 1129 224 1235T368 1397T571 1454Q710 1454 790 1374T870 1155ZM1463 420Q1463 494 1429 537T1333 581Q1271 581 1221 539T1142 425T1113 281Q1113 209 1149 166T1250 122Q1340 122 1401 210T1463
420ZM695 1150Q695 1228 660 1270T565 1312Q503 1312 454 1271T375 1158T345 1013Q345 939 382 896T482 852Q541 852 590 893T667 1003T695 1150Z" />
<glyph unicode="&amp;" glyph-name="ampersand" horiz-adv-x="1480" d="M1409 761Q1344 483 1134 269L1332 0H1058L963 130Q757 -26 494 -26Q362 -26 267 21T123 153T74 341Q74 493 171 602T492 800Q395 946 395 1087Q395 1190 447 1275T596 1409T819 1458Q930
1458 1013 1419T1141 1311T1186 1154Q1186 1023 1091 928T791 751L1027 425Q1149 568 1193 761H1409ZM965 1140Q965 1205 923 1244T809 1284Q724 1284 671 1232T617 1096Q617 993 694 886Q853 953 909 1009T965 1140ZM862 275L783 383L585 660Q440 600 375 531T310
367Q310 273 371 215T534 156Q711 156 862 275Z" />
<glyph unicode="&apos;" glyph-name="quotesingle" horiz-adv-x="531" d="M460 998H303L283 1443H482L460 998Z" />
<glyph unicode="(" glyph-name="parenleft" horiz-adv-x="690" d="M884 1434Q606 1151 479 874T351 298Q351 136 390 -25T502 -307H309Q230 -182 186 -17T141 310Q141 624 270 902T668 1434H884Z" />
<glyph unicode=")" glyph-name="parenright" horiz-adv-x="690" d="M553 816Q553 501 424 224T25 -307H-192Q85 -28 214 249T343 827Q343 990 303 1150T191 1434H384Q460 1315 506 1149T553 816Z" />
<glyph unicode="*" glyph-name="asterisk" horiz-adv-x="894" d="M641 1032L836 805L688 704L541 963L394 704L248 805L443 1032L168 1078L225 1242L481 1138L448 1434H634L601 1138L858 1242L915 1078L641 1032Z" />
<glyph unicode="+" glyph-name="plus" horiz-adv-x="1426" d="M819 507V113H652V507H257V676H652V1070H819V676H1213V507H819Z" />
<glyph unicode="," glyph-name="comma" horiz-adv-x="500" d="M100 -259H-94L123 239H353L100 -259Z" />
<glyph unicode="-" glyph-name="hyphen" horiz-adv-x="823" d="M672 471H125L163 646H710L672 471Z" />
<glyph unicode="." glyph-name="period" horiz-adv-x="500" d="M313 116Q313 55 270 16T163 -24Q101 -24 60 14T18 109Q18 169 61 210T170 251Q231 251 272 212T313 116Z" />
<glyph unicode="/" glyph-name="slash" horiz-adv-x="860" d="M48 -238H-195L852 1434H1094L48 -238Z" />
<glyph unicode="0" glyph-name="zero" horiz-adv-x="1170" d="M1149 1019Q1149 731 1061 481T825 103T492 -25Q310 -25 204 103T97 458Q97 723 186 961T425 1329T766 1458Q944 1458 1046 1342T1149 1019ZM911 1018Q911 1140 869 1204T748 1268Q641 1268 554 1162T401
837T336 439Q336 312 382 240T512 167Q625 167 708 285T851 616T911 1018Z" />
<glyph unicode="1" glyph-name="one" horiz-adv-x="843" d="M232 0L487 1196L151 1115L196 1322L782 1458L474 0H232Z" />
<glyph unicode="2" glyph-name="two" horiz-adv-x="1040" d="M798 1078Q798 1163 744 1212T588 1262Q489 1262 392 1222T214 1119L266 1355Q422 1458 651 1458Q834 1458 938 1368T1042 1121Q1042 1004 1003 913T883 742T601 537Q401 414 328 344T241 204H876L833
0H-64L-45 89Q-22 202 33 292T180 466T460 668Q592 751 664 814T767 937T798 1078Z" />
<glyph unicode="3" glyph-name="three" horiz-adv-x="988" d="M996 1127Q996 971 895 868T617 736V732Q744 710 814 626T884 421Q884 289 817 188T622 31T315 -25Q218 -25 120 -4T-59 57L-13 263Q52 221 143 194T314 166Q471 166 557 232T643 420Q643 522 566
582T327 642H211L252 833H387Q559 833 656 899T754 1086Q754 1173 695 1220T534 1268Q376 1268 220 1190L265 1400Q426 1458 600 1458Q782 1458 889 1369T996 1127Z" />
<glyph unicode="4" glyph-name="four" horiz-adv-x="1154" d="M1115 1434L918 508H1131L1090 315H877L810 0H585L652 315H3L44 510Q278 722 503 972T878 1434H1115ZM693 508L820 1102Q590 809 282 508H693Z" />
<glyph unicode="5" glyph-name="five" horiz-adv-x="1020" d="M504 881Q708 881 821 779T935 495Q935 348 859 225T648 38T336 -25Q244 -25 145 -8T-7 38L39 246Q90 212 177 189T340 166Q451 166 530 205T651 312T693 462Q693 572 626 630T406 689Q270 689 158
675L345 1434H1075L1032 1231H508L418 877L504 881Z" />
<glyph unicode="6" glyph-name="six" horiz-adv-x="1115" d="M1101 1208Q1004 1268 866 1268Q744 1268 642 1201T466 1011T358 731H362Q415 811 504 860T696 909Q860 909 954 806T1049 517Q1049 368 982 240T802 44T546 -24Q338 -24 221 113T104 497Q104 764 206
987T487 1334T884 1458Q1036 1458 1145 1415L1101 1208ZM814 496Q814 605 759 663T605 722Q489 722 416 637T342 429Q342 308 400 239T557 169Q668 169 741 263T814 496Z" />
<glyph unicode="7" glyph-name="seven" horiz-adv-x="1027" d="M343 0H85Q182 270 376 590T832 1231H143L187 1434H1143L1114 1295Q791 879 614 573T343 0Z" />
<glyph unicode="8" glyph-name="eight" horiz-adv-x="1142" d="M42 356Q42 511 139 623T407 777Q252 874 252 1051Q252 1165 311 1258T482 1405T742 1458Q927 1458 1035 1367T1143 1123Q1143 986 1063 891T841 753Q934 712 988 632T1042 443Q1042 315 972 207T776
38T493 -23Q279 -23 161 77T42 356ZM290 370Q290 274 348 219T510 163Q631 163 712 245T794 453Q794 547 737 604T586 661Q458 661 374 578T290 370ZM486 1029Q486 948 534 900T663 851Q759 851 832 922T905 1094Q905 1175 857 1223T723 1272Q618 1272 552 1203T486
1029Z" />
<glyph unicode="9" glyph-name="nine" horiz-adv-x="1124" d="M1095 941Q1095 751 1041 574T886 262T642 52T310 -24Q223 -24 156 -11T54 19L88 225Q187 167 321 167Q518 167 655 309T841 697H837Q713 517 512 517Q399 517 317 568T190 712T145 917Q145 1068 215
1198T399 1393T659 1459Q863 1459 979 1320T1095 941ZM860 1001Q860 1117 802 1191T649 1265Q571 1265 511 1221T417 1102T384 940Q384 830 439 766T589 702Q669 702 730 740T825 848T860 1001Z" />
<glyph unicode=":" glyph-name="colon" horiz-adv-x="500" d="M479 907Q479 846 436 806T327 766Q264 766 224 805T184 899Q184 961 227 1001T335 1041Q395 1041 437 1003T479 907ZM313 116Q313 55 270 16T163 -24Q101 -24 60 14T18 109Q18 169 61 210T170 251Q231
251 272 212T313 116Z" />
<glyph unicode=";" glyph-name="semicolon" horiz-adv-x="500" d="M479 907Q479 846 436 806T327 766Q264 766 224 805T184 899Q184 961 227 1001T335 1041Q395 1041 437 1003T479 907ZM73 -259H-120L96 239H327L73 -259Z" />
<glyph unicode="&lt;" glyph-name="less" horiz-adv-x="1426" d="M233 531V643L1130 1106V912L476 591V587L1130 296V104L233 531Z" />
<glyph unicode="=" glyph-name="equal" horiz-adv-x="1426" d="M257 721V891H1213V721H257ZM257 291V460H1213V291H257Z" />
<glyph unicode="&gt;" glyph-name="greater" horiz-adv-x="1426" d="M318 104V297L974 586V591L318 911V1106L1215 643V533L318 104Z" />
<glyph unicode="?" glyph-name="question" horiz-adv-x="900" d="M958 1139Q958 1019 892 920T681 725Q579 658 534 591T469 418H263Q295 576 346 663T501 820Q625 906 673 968T722 1101Q722 1177 668 1223T528 1269Q372 1269 235 1179L278 1402Q422 1466 584
1466Q755 1466 856 1378T958 1139ZM465 121Q465 61 422 20T313 -21Q253 -21 212 17T170 112Q170 173 212 214T321 255Q381 255 423 216T465 121Z" />
<glyph unicode="@" glyph-name="at" horiz-adv-x="1960" d="M1842 804Q1842 633 1778 489T1600 262T1341 180Q1242 180 1184 227T1125 349Q1125 366 1130 393H1125Q1068 290 997 236T829 181Q716 181 647 268T577 501Q577 654 644 789T821 1000T1059 1076Q1131
1076 1182 1045T1254 958H1258L1286 1060H1464Q1301 506 1301 416Q1301 365 1321 346T1383 326Q1458 326 1526 390T1634 560T1674 782Q1674 940 1607 1057T1411 1238T1096 1303Q892 1303 721 1206T454 935T357 547Q357 266 518 113T979 -40Q1111 -40 1248 -15T1461
49L1431 -111Q1367 -142 1237 -164T965 -187Q597 -187 388 8T179 544Q179 805 301 1014T639 1338T1114 1453Q1338 1453 1502 1372T1754 1143T1842 804ZM1196 797Q1196 863 1161 899T1068 935Q987 935 919 877T809 718T767 506Q767 420 803 374T895 328Q952 328
1003 366T1095 476T1166 643T1196 797Z" />
<glyph unicode="A" glyph-name="A" horiz-adv-x="1367" d="M992 0L939 360H378L178 0H-103L737 1434H1018L1245 0H992ZM839 1149V1184L841 1219H836Q816 1159 789 1109L481 560H913L843 1100Q839 1118 839 1149Z" />
<glyph unicode="B" glyph-name="B" horiz-adv-x="1250" d="M1211 1117Q1211 974 1124 877T876 748V744Q998 725 1067 647T1137 453Q1137 245 984 123T565 0H61L365 1434H817Q1002 1434 1106 1351T1211 1117ZM952 1069Q952 1153 898 1196T744 1239H573L486 837H656Q796
837 874 898T952 1069ZM877 446Q877 536 815 589T625 642H445L351 195H557Q713 195 795 260T877 446Z" />
<glyph unicode="C" glyph-name="C" horiz-adv-x="1304" d="M1319 1141Q1152 1241 972 1241Q798 1241 663 1162T453 941T379 623Q379 417 492 304T800 190Q899 190 986 212T1167 285L1114 45Q953 -25 741 -25Q554 -25 413 52T196 272T120 601Q120 851 227 1048T531
1352T985 1458Q1187 1458 1371 1380L1319 1141Z" />
<glyph unicode="D" glyph-name="D" horiz-adv-x="1500" d="M1450 854Q1450 599 1342 402T1039 103T578 0H61L366 1434H818Q1108 1434 1279 1279T1450 854ZM1191 835Q1191 1027 1080 1126T758 1226H570L353 207H585Q767 207 905 285T1117 507T1191 835Z" />
<glyph unicode="E" glyph-name="E" horiz-adv-x="1053" d="M1097 1226H570L484 820H974L929 612H440L353 207H914L871 0H61L365 1434H1142L1097 1226Z" />
<glyph unicode="F" glyph-name="F" horiz-adv-x="1034" d="M1099 1222H570L480 804H970L924 594H435L310 0H61L365 1434H1144L1099 1222Z" />
<glyph unicode="G" glyph-name="G" horiz-adv-x="1430" d="M1360 1135Q1286 1186 1183 1216T968 1247Q794 1247 661 1170T455 951T382 628Q382 422 492 303T794 184Q902 184 995 218L1069 572H757L801 776H1360L1212 82Q1006 -26 762 -26Q570 -26 425 53T202 278T124
611Q124 856 230 1051T530 1352T986 1458Q1201 1458 1408 1370L1360 1135Z" />
<glyph unicode="H" glyph-name="H" horiz-adv-x="1507" d="M1220 0H972L1101 613H440L311 0H61L365 1434H615L486 833H1148L1277 1434H1525L1220 0Z" />
<glyph unicode="I" glyph-name="I" horiz-adv-x="597" d="M310 0H61L364 1434H614L310 0Z" />
<glyph unicode="J" glyph-name="J" horiz-adv-x="808" d="M95 -25Q52 -25 -9 -13T-96 14L-53 243Q-29 223 16 206T103 189Q218 189 289 272T400 541L590 1434H838L648 540Q585 250 449 113T95 -25Z" />
<glyph unicode="K" glyph-name="K" horiz-adv-x="1280" d="M1427 1434L714 729L1157 0H856L507 615Q482 658 466 704H462L310 0H61L365 1434H615L473 764H477L525 820L1116 1434H1427Z" />
<glyph unicode="L" glyph-name="L" horiz-adv-x="998" d="M861 0H61L365 1434H615L355 211H905L861 0Z" />
<glyph unicode="M" glyph-name="M" horiz-adv-x="1728" d="M1440 0H1212L1405 910Q1433 1036 1481 1206H1475Q1424 1093 1314 947L908 402H754L590 929Q572 984 557 1064T540 1206H533Q498 985 481 909L287 0H61L365 1434H657L844 844Q874 749 879 665H884Q939
785 997 863L1426 1434H1745L1440 0Z" />
<glyph unicode="N" glyph-name="N" horiz-adv-x="1587" d="M1301 0H1061L572 1030Q566 1043 552 1080T534 1133H528L519 1065L507 992L296 0H61L364 1434H625L1104 409Q1127 358 1137 325H1141Q1146 394 1160 458L1368 1434H1605L1301 0Z" />
<glyph unicode="O" glyph-name="O" horiz-adv-x="1549" d="M1499 847Q1499 615 1401 413T1128 93T715 -25Q540 -25 406 52T198 270T124 589Q124 777 183 937T354 1218T606 1399T911 1458Q1084 1458 1218 1383T1426 1168T1499 847ZM1239 838Q1239 1024 1144 1132T885
1241Q749 1241 632 1156T449 915T383 590Q383 407 476 299T735 190Q878 190 992 274T1173 515T1239 838Z" />
<glyph unicode="P" glyph-name="P" horiz-adv-x="1234" d="M1246 1041Q1246 885 1173 767T961 583T629 518H419L310 0H61L365 1434H797Q1007 1434 1126 1330T1246 1041ZM987 1023Q987 1119 922 1176T733 1234H572L462 716H637Q801 716 894 797T987 1023Z" />
<glyph unicode="Q" glyph-name="Q" horiz-adv-x="1549" d="M1499 843Q1499 648 1426 467T1223 164T927 4L1233 -357H913L685 -24Q515 -17 388 62T193 278T124 586Q124 826 227 1031T511 1347T914 1458Q1180 1458 1339 1290T1499 843ZM1239 835Q1239 1025 1144
1133T890 1241Q748 1241 632 1154T449 916T383 589Q383 405 477 298T735 190Q878 190 991 273T1172 510T1239 835Z" />
<glyph unicode="R" glyph-name="R" horiz-adv-x="1251" d="M1237 1074Q1237 898 1120 784T812 649V645Q925 608 968 436L1078 0H813L721 398Q700 490 653 534T524 579H434L310 0H61L365 1434H808Q1010 1434 1123 1339T1237 1074ZM977 1038Q977 1128 922 1182T751
1237H573L475 777H640Q798 777 887 847T977 1038Z" />
<glyph unicode="S" glyph-name="S" horiz-adv-x="1059" d="M1029 1160Q966 1203 878 1229T710 1255Q633 1255 579 1229T497 1159T468 1063Q468 991 510 935T671 799Q825 696 884 605T944 400Q944 275 881 175T702 25T430 -25Q328 -25 220 1T33 71L75 300Q151 244
248 211T437 178Q556 178 621 229T686 375Q686 447 640 501T466 636Q330 722 269 818T207 1032Q207 1153 269 1251T445 1403T715 1458Q890 1458 1073 1386L1029 1160Z" />
<glyph unicode="T" glyph-name="T" horiz-adv-x="1139" d="M1246 1226H840L581 0H333L592 1226H179L224 1434H1291L1246 1226Z" />
<glyph unicode="U" glyph-name="U" horiz-adv-x="1446" d="M650 -25Q424 -25 292 102T159 444Q159 548 183 659L350 1434H599L432 663Q405 528 405 467Q405 338 479 264T679 190Q829 190 915 280T1044 567L1231 1434H1480L1295 573Q1247 349 1168 223T962 36T650 -25Z" />
<glyph unicode="V" glyph-name="V" horiz-adv-x="1326" d="M667 0H405L206 1434H458L586 376Q591 329 591 294L588 244H594Q614 306 653 378L1222 1434H1497L667 0Z" />
<glyph unicode="W" glyph-name="W" horiz-adv-x="1983" d="M1456 0H1195L1117 1016Q1117 1065 1129 1146H1125Q1100 1065 1068 997L568 0H292L199 1434H458L500 412V397Q500 340 488 262H493Q499 283 522 339T554 413L1063 1434H1311L1380 387V370Q1380 309 1374
263H1378Q1391 313 1432 408L1894 1434H2156L1456 0Z" />
<glyph unicode="X" glyph-name="X" horiz-adv-x="1275" d="M843 714L1136 0H856L699 447Q678 507 660 594H656L647 576Q626 526 607 503L208 0H-99L527 736L237 1434H525L669 999Q705 892 707 853H712L720 870Q743 920 761 943L1152 1434H1441L843 714Z" />
<glyph unicode="Y" glyph-name="Y" horiz-adv-x="1190" d="M602 0H353L465 527L202 1434H468L614 831L624 777L629 731H633Q664 799 684 828L1097 1434H1375L713 532L602 0Z" />
<glyph unicode="Z" glyph-name="Z" horiz-adv-x="1205" d="M333 207H1083L1039 0H-74L-50 118L948 1226H246L290 1434H1354L1329 1322L333 207Z" />
<glyph unicode="[" glyph-name="bracketleft" horiz-adv-x="690" d="M805 1274H584L278 -166H498L464 -326H44L418 1434H838L805 1274Z" />
<glyph unicode="\" glyph-name="backslash" horiz-adv-x="843" d="M511 -239L164 1434H374L717 -239H511Z" />
<glyph unicode="]" glyph-name="bracketright" horiz-adv-x="690" d="M273 -326H-146L-112 -166H106L413 1273H193L226 1434H647L273 -326Z" />
<glyph unicode="^" glyph-name="asciicircum" horiz-adv-x="1426" d="M1054 617L744 1219H738L451 617H256L682 1458H796L1250 617H1054Z" />
<glyph unicode="_" glyph-name="underscore" horiz-adv-x="850" d="M-174 -297L-150 -178H700L676 -297H-174Z" />
<glyph unicode="`" glyph-name="grave" horiz-adv-x="807" d="M539 1202L290 1528H498L706 1202H539Z" />
<glyph unicode="a" glyph-name="a" horiz-adv-x="1162" d="M935 0H690Q690 25 696 91T708 194H704Q641 102 596 61T497 -3T377 -25Q231 -25 150 78T69 363Q69 549 156 717T390 967T732 1049Q893 1049 1115 1001L974 333Q959 262 947 159T935 0ZM843 853Q781 868
706 868Q592 868 505 809T365 628T312 375Q312 275 350 221T463 166Q571 166 657 279T784 578L843 853Z" />
<glyph unicode="b" glyph-name="b" horiz-adv-x="1162" d="M1092 666Q1092 476 1008 310T779 59T447 -25Q342 -25 234 2T50 77L355 1516H598L498 1045L452 848H457Q529 953 609 1001T786 1049Q931 1049 1011 948T1092 666ZM850 646Q850 858 689 858Q587 858 499
747T377 476L317 191Q382 156 480 156Q586 156 669 222T801 405T850 646Z" />
<glyph unicode="c" glyph-name="c" horiz-adv-x="919" d="M882 782Q844 814 788 836T663 858Q568 858 490 802T361 641T311 419Q311 295 366 231T525 166Q587 166 656 191T781 252L739 49Q597 -25 457 -25Q275 -25 172 86T69 395Q69 573 146 725T360 963T672 1049Q745
1049 817 1032T929 987L882 782Z" />
<glyph unicode="d" glyph-name="d" horiz-adv-x="1162" d="M935 0H690Q690 47 708 191H704Q631 79 555 27T379 -25Q232 -25 151 76T69 362Q69 549 152 711T381 961T712 1049Q800 1049 880 1031L984 1516H1222L972 326Q960 275 948 169T935 0ZM843 850Q773 868
707 868Q592 868 505 808T365 628T312 377Q312 273 351 220T466 166Q571 166 657 279T786 586L843 850Z" />
<glyph unicode="e" glyph-name="e" horiz-adv-x="1031" d="M1004 772Q1004 587 832 500T310 408L308 397V377Q308 273 370 216T543 158Q619 158 705 185T864 256L824 57Q673 -25 491 -25Q292 -25 181 86T69 399Q69 573 145 724T357 962T655 1049Q816 1049 910
973T1004 772ZM770 766Q770 816 734 845T633 875Q527 875 441 788T328 574Q770 574 770 766Z" />
<glyph unicode="f" glyph-name="f" horiz-adv-x="686" d="M881 1322Q825 1349 757 1349Q680 1349 639 1303T577 1162L547 1024H784L743 838H503L251 -340H10L263 838H88L129 1024H303L340 1192Q380 1373 485 1456T759 1540Q849 1540 919 1516L881 1322Z" />
<glyph unicode="g" glyph-name="g" horiz-adv-x="1162" d="M283 -481Q118 -481 -34 -405L9 -201Q152 -294 301 -294Q456 -294 547 -209T677 64L703 189H699Q624 72 548 24T378 -25Q234 -25 152 75T69 360Q69 550 152 711T381 961T710 1049Q873 1049 1115 1003L924
98Q878 -119 799 -239T594 -420T283 -481ZM843 853Q781 868 691 868Q587 868 499 802T362 623T312 377Q312 274 352 220T461 166Q531 166 594 214T709 363T784 575L843 853Z" />
<glyph unicode="h" glyph-name="h" horiz-adv-x="1183" d="M1093 773Q1093 719 1063 576L941 0H699L823 592Q843 699 843 723Q843 858 721 858Q656 858 584 807T456 671T382 500L275 0H32L355 1516H597L445 805H449Q532 921 633 985T835 1049Q963 1049 1028 977T1093
773Z" />
<glyph unicode="i" glyph-name="i" horiz-adv-x="590" d="M586 1371Q586 1311 543 1272T438 1232Q378 1232 337 1268T295 1363Q295 1424 339 1462T445 1500Q503 1500 544 1464T586 1371ZM314 -17Q204 -17 147 38T89 197Q89 249 100 299L249 1024H492L356 379Q335
279 335 250Q335 174 422 174Q473 174 513 190L475 6Q389 -17 314 -17Z" />
<glyph unicode="j" glyph-name="j" horiz-adv-x="515" d="M586 1371Q586 1311 543 1272T438 1232Q378 1232 337 1268T295 1363Q295 1424 339 1462T445 1500Q503 1500 544 1464T586 1371ZM-184 -481Q-303 -481 -367 -450L-327 -252Q-304 -268 -269 -279T-208 -291Q-119
-291 -59 -217T36 18L250 1024H492L277 14Q221 -243 108 -362T-184 -481Z" />
<glyph unicode="k" glyph-name="k" horiz-adv-x="1077" d="M631 546L944 0H673L392 536H388L274 0H32L355 1516H597L398 585H402L861 1024H1155L631 546Z" />
<glyph unicode="l" glyph-name="l" horiz-adv-x="590" d="M314 -17Q203 -17 145 38T87 194Q87 261 125 435T355 1516H598L356 379Q335 279 335 250Q335 174 422 174Q473 174 513 190L475 6Q398 -17 314 -17Z" />
<glyph unicode="m" glyph-name="m" horiz-adv-x="1811" d="M1722 773Q1722 723 1691 576L1568 0H1328L1453 592Q1473 699 1473 723Q1473 858 1354 858Q1262 858 1159 746T1029 504L923 0H681L807 592Q827 699 827 723Q827 858 708 858Q647 858 577 805T453 668T383
503L275 0H32L187 716Q223 888 240 1024H476Q468 939 445 804H449Q528 920 626 984T821 1049Q1056 1049 1073 799Q1157 921 1258 985T1466 1049Q1594 1049 1658 978T1722 773Z" />
<glyph unicode="n" glyph-name="n" horiz-adv-x="1188" d="M1098 774Q1098 723 1067 576L945 0H703L827 592Q847 699 847 723Q847 783 816 820T726 858Q662 858 590 808T461 672T387 503L280 0H36L191 716Q227 888 244 1024H480Q472 939 449 804H453Q533 921 635
985T839 1049Q963 1049 1030 978T1098 774Z" />
<glyph unicode="o" glyph-name="o" horiz-adv-x="1137" d="M1067 631Q1067 445 993 292T787 57T483 -25Q290 -25 180 86T69 393Q69 579 143 731T349 966T653 1049Q843 1049 955 938T1067 631ZM823 625Q823 732 774 795T636 858Q545 858 471 796T355 626T312 397Q312
289 362 228T500 166Q593 166 667 228T782 398T823 625Z" />
<glyph unicode="p" glyph-name="p" horiz-adv-x="1162" d="M1092 668Q1092 481 1010 317T786 64T466 -25Q364 -25 272 4L171 -473H-72L176 697Q188 749 201 854T218 1024H457Q457 998 449 932T435 829H439Q576 1049 787 1049Q932 1049 1012 947T1092 668ZM850
646Q850 752 809 805T692 858Q622 858 557 807T440 655T365 449L307 183Q328 175 380 166T472 156Q579 156 665 223T801 404T850 646Z" />
<glyph unicode="q" glyph-name="q" horiz-adv-x="1162" d="M803 -473H562L657 -22Q678 73 705 177H701Q565 -25 379 -25Q233 -25 151 76T69 363Q69 553 156 719T390 967T725 1049Q915 1049 1114 994L803 -473ZM842 849Q773 868 703 868Q592 868 505 808T365 627T312
379Q312 273 351 220T465 166Q571 166 657 275T783 568L842 849Z" />
<glyph unicode="r" glyph-name="r" horiz-adv-x="773" d="M798 791Q737 823 680 823Q576 823 491 718T368 438L275 0H33L175 666Q226 915 235 1024H473Q463 927 445 808H449Q512 922 581 985T744 1049Q782 1049 845 1034L798 791Z" />
<glyph unicode="s" glyph-name="s" horiz-adv-x="854" d="M771 806Q727 832 667 851T546 870Q462 870 421 835T379 743Q379 693 413 660T511 592Q641 519 688 453T736 298Q736 201 686 129T538 16T301 -25Q225 -25 140 -8T10 33L50 231Q105 198 180 175T326 152Q414
152 457 185T500 276Q500 321 471 354T356 433Q243 494 192 562T140 722Q140 816 188 890T328 1007T546 1049Q621 1049 692 1036T813 1002L771 806Z" />
<glyph unicode="t" glyph-name="t" horiz-adv-x="715" d="M733 838H484L386 375Q368 288 368 258Q368 212 389 192T458 171Q504 171 598 207L558 18Q458 -21 360 -21Q123 -21 123 210Q123 268 144 362L244 838H80L124 1024H283L336 1269L590 1336L525 1024H776L733 838Z" />
<glyph unicode="u" glyph-name="u" horiz-adv-x="1184" d="M941 0H701L732 217H728Q647 103 547 39T343 -25Q216 -25 149 47T82 251Q82 300 113 447L235 1024H477L352 435Q331 323 331 301Q331 241 361 206T451 171Q520 171 592 222T721 359T795 532L900 1024H1142L995
336Q956 150 941 0Z" />
<glyph unicode="v" glyph-name="v" horiz-adv-x="1030" d="M520 0H274L126 1024H366L432 418Q443 330 443 250L442 221H446Q489 323 538 417L859 1024H1126L520 0Z" />
<glyph unicode="w" glyph-name="w" horiz-adv-x="1551" d="M1112 0H867L827 644L825 711Q825 743 831 782H827Q814 728 782 665L448 0H200L121 1024H351L376 308V296Q376 249 369 202H375Q400 274 406 288T772 1024H997L1034 264Q1034 244 1028 200H1035Q1043
235 1084 324L1392 1024H1629L1112 0Z" />
<glyph unicode="x" glyph-name="x" horiz-adv-x="1027" d="M669 507L901 0H635L525 293L493 390H488Q467 358 449 332T188 0H-95L363 514L139 1024H405L509 726Q527 675 538 624H542Q556 645 575 672T849 1024H1122L669 507Z" />
<glyph unicode="y" glyph-name="y" horiz-adv-x="1046" d="M-27 -481Q-97 -481 -160 -460L-118 -266Q-79 -290 -18 -290Q108 -290 196 -155L299 5L106 1024H357L453 319L457 254L455 212H460Q485 276 508 318L891 1024H1148L459 -130Q345 -321 233 -401T-27 -481Z" />
<glyph unicode="z" glyph-name="z" horiz-adv-x="960" d="M316 186H845L805 0H-81L-62 93L645 838H151L191 1024H1026L1003 919L316 186Z" />
<glyph unicode="{" glyph-name="braceleft" horiz-adv-x="690" d="M304 539V535Q397 486 397 350Q397 299 386 246L334 9Q324 -34 324 -71Q324 -130 355 -157T453 -187L421 -341Q276 -341 200 -278T123 -93Q123 -46 135 8L191 269Q200 309 200 343Q200 469 77
475L110 625Q191 628 238 672T305 814L362 1084Q389 1209 442 1285T575 1396T797 1434L765 1277Q679 1277 632 1232T565 1087L507 822Q454 585 304 539Z" />
<glyph unicode="|" glyph-name="bar" horiz-adv-x="580" d="M201 -481V1567H400V-481H201Z" />
<glyph unicode="}" glyph-name="braceright" horiz-adv-x="690" d="M-109 -339L-76 -183Q5 -183 54 -140T125 8L180 272Q203 384 254 458T385 556V560Q291 611 291 745Q291 799 303 850L353 1085Q363 1129 363 1164Q363 1223 332 1251T235 1281L267 1435Q565 1431
565 1189Q565 1140 553 1086L497 826Q488 784 488 752Q488 623 611 619L578 469Q497 467 451 422T383 280L325 11Q298 -115 244 -191T109 -303T-109 -339Z" />
<glyph unicode="~" glyph-name="asciitilde" horiz-adv-x="1426" d="M1239 761Q1233 601 1154 513T943 424Q889 424 839 440T682 522Q646 545 606 566T523 587Q459 587 424 542T387 419H216Q223 577 301 667T515 757Q574 757 630 738T808 639Q850 611 879 601T940
590Q996 590 1031 637T1069 761H1239Z" />
</font>
</defs>
</svg>
